<svg width="27" height="26" viewBox="0 0 27 26" fill="none" xmlns="http://www.w3.org/2000/svg">
<path d="M11.5 13C11.5 13.5304 11.7107 14.0391 12.0858 14.4142C12.4609 14.7893 12.9696 15 13.5 15C14.0304 15 14.5391 14.7893 14.9142 14.4142C15.2893 14.0391 15.5 13.5304 15.5 13C15.5 12.4696 15.2893 11.9609 14.9142 11.5858C14.5391 11.2107 14.0304 11 13.5 11C12.9696 11 12.4609 11.2107 12.0858 11.5858C11.7107 11.9609 11.5 12.4696 11.5 13ZM11.5 7C11.5 7.53043 11.7107 8.03914 12.0858 8.41421C12.4609 8.78929 12.9696 9 13.5 9C14.0304 9 14.5391 8.78929 14.9142 8.41421C15.2893 8.03914 15.5 7.53043 15.5 7C15.5 6.46957 15.2893 5.96086 14.9142 5.58579C14.5391 5.21071 14.0304 5 13.5 5C12.9696 5 12.4609 5.21071 12.0858 5.58579C11.7107 5.96086 11.5 6.46957 11.5 7ZM11.5 19C11.5 19.5304 11.7107 20.0391 12.0858 20.4142C12.4609 20.7893 12.9696 21 13.5 21C14.0304 21 14.5391 20.7893 14.9142 20.4142C15.2893 20.0391 15.5 19.5304 15.5 19C15.5 18.4696 15.2893 17.9609 14.9142 17.5858C14.5391 17.2107 14.0304 17 13.5 17C12.9696 17 12.4609 17.2107 12.0858 17.5858C11.7107 17.9609 11.5 18.4696 11.5 19Z" fill="#99B8BA"/>
</svg>
