<svg width="25" height="25" viewBox="0 0 25 25" fill="none" xmlns="http://www.w3.org/2000/svg">
<mask id="mask0_3136_1747" style="mask-type:alpha" maskUnits="userSpaceOnUse" x="0" y="0" width="25" height="25">
<rect x="0.918823" y="0.970337" width="24" height="24" fill="#D9D9D9"/>
</mask>
<g mask="url(#mask0_3136_1747)">
<path d="M12.9188 12.9703C11.8188 12.9703 10.8772 12.5787 10.0938 11.7953C9.31049 11.012 8.91882 10.0703 8.91882 8.97034C8.91882 7.87034 9.31049 6.92867 10.0938 6.14534C10.8772 5.362 11.8188 4.97034 12.9188 4.97034C14.0188 4.97034 14.9605 5.362 15.7438 6.14534C16.5272 6.92867 16.9188 7.87034 16.9188 8.97034C16.9188 10.0703 16.5272 11.012 15.7438 11.7953C14.9605 12.5787 14.0188 12.9703 12.9188 12.9703ZM4.91882 18.9703V18.1703C4.91882 17.6037 5.06466 17.0828 5.35632 16.6078C5.64799 16.1328 6.03549 15.7703 6.51882 15.5203C7.55216 15.0037 8.60216 14.6162 9.66882 14.3578C10.7355 14.0995 11.8188 13.9703 12.9188 13.9703C14.0188 13.9703 15.1022 14.0995 16.1688 14.3578C17.2355 14.6162 18.2855 15.0037 19.3188 15.5203C19.8022 15.7703 20.1897 16.1328 20.4813 16.6078C20.773 17.0828 20.9188 17.6037 20.9188 18.1703V18.9703C20.9188 19.5203 20.723 19.9912 20.3313 20.3828C19.9397 20.7745 19.4688 20.9703 18.9188 20.9703H6.91882C6.36882 20.9703 5.89799 20.7745 5.50632 20.3828C5.11466 19.9912 4.91882 19.5203 4.91882 18.9703Z" fill="#319B27"/>
</g>
</svg>
