<svg width="110" height="34" viewBox="0 0 110 34" fill="none" xmlns="http://www.w3.org/2000/svg">
<path d="M7.58169 17.0944C7.52675 17.1878 7.46906 17.2564 7.40863 17.3004C7.34819 17.3443 7.27128 17.3663 7.17788 17.3663C7.07899 17.3663 6.96636 17.3224 6.84 17.2345C6.71364 17.1411 6.55431 17.0394 6.36202 16.9295C6.17523 16.8142 5.94998 16.7125 5.68627 16.6246C5.42255 16.5312 5.10665 16.4845 4.73855 16.4845C4.39243 16.4845 4.08752 16.5312 3.82381 16.6246C3.56559 16.7125 3.34858 16.8361 3.17277 16.9955C2.99696 17.1493 2.86236 17.3333 2.76896 17.5476C2.68106 17.7564 2.63711 17.9844 2.63711 18.2316C2.63711 18.5503 2.71677 18.814 2.8761 19.0227C3.04092 19.2315 3.25518 19.4101 3.51889 19.5584C3.7826 19.7067 4.08202 19.8359 4.41716 19.9457C4.75229 20.0556 5.09566 20.171 5.44728 20.2919C5.79889 20.4072 6.14227 20.5418 6.4774 20.6957C6.81253 20.8495 7.11195 21.0445 7.37566 21.2808C7.63937 21.5115 7.85089 21.7972 8.01022 22.1378C8.17504 22.473 8.25745 22.885 8.25745 23.374C8.25745 23.8959 8.1668 24.3849 7.98549 24.8409C7.80969 25.2969 7.55147 25.6952 7.21084 26.0358C6.87022 26.3764 6.44993 26.6456 5.94998 26.8434C5.45552 27.0357 4.89239 27.1319 4.26058 27.1319C3.88149 27.1319 3.5134 27.0934 3.15629 27.0165C2.79918 26.9451 2.4613 26.8434 2.14265 26.7116C1.824 26.5742 1.52458 26.4121 1.24439 26.2253C0.969687 26.0331 0.722458 25.8188 0.502699 25.5826L1.0054 24.742C1.05484 24.676 1.11253 24.6211 1.17846 24.5772C1.24988 24.5332 1.32954 24.5112 1.41745 24.5112C1.53282 24.5112 1.66467 24.5717 1.81301 24.6925C1.96684 24.8134 2.15364 24.948 2.3734 25.0963C2.59865 25.2392 2.86511 25.371 3.17277 25.4919C3.48593 25.6128 3.86501 25.6732 4.31002 25.6732C4.67263 25.6732 4.99677 25.6265 5.28246 25.5331C5.56814 25.4342 5.80713 25.2969 5.99942 25.1211C6.19721 24.9398 6.34829 24.7227 6.45268 24.47C6.55706 24.2173 6.60925 23.9371 6.60925 23.6294C6.60925 23.2833 6.52959 23.0004 6.37027 22.7806C6.21094 22.5609 5.99942 22.3768 5.73571 22.2285C5.472 22.0801 5.17258 21.9538 4.83745 21.8494C4.50231 21.745 4.15894 21.6379 3.80733 21.528C3.45571 21.4126 3.11234 21.2808 2.7772 21.1324C2.44207 20.9841 2.14265 20.7918 1.87894 20.5556C1.61523 20.3138 1.40371 20.0144 1.24439 19.6573C1.08506 19.2947 1.0054 18.8497 1.0054 18.3223C1.0054 17.8992 1.08781 17.4899 1.25263 17.0944C1.41745 16.6988 1.65643 16.3499 1.96959 16.0478C2.28824 15.7401 2.67831 15.4956 3.13981 15.3143C3.6013 15.1275 4.12872 15.0341 4.72207 15.0341C5.38684 15.0341 5.99667 15.1413 6.55157 15.3555C7.11195 15.5643 7.59817 15.8665 8.01022 16.262L7.58169 17.0944ZM9.91723 27V18.6272H10.8814C11.1067 18.6272 11.2468 18.7343 11.3017 18.9486L11.4171 19.748C11.7247 19.3799 12.0654 19.0804 12.439 18.8497C12.818 18.6134 13.2603 18.4953 13.7658 18.4953C14.3206 18.4953 14.7712 18.6492 15.1173 18.9568C15.4634 19.259 15.7161 19.671 15.8754 20.193C15.9963 19.8963 16.1529 19.6408 16.3452 19.4266C16.5375 19.2123 16.7517 19.0365 16.988 18.8991C17.2242 18.7618 17.4742 18.6601 17.7379 18.5942C18.0071 18.5283 18.2791 18.4953 18.5538 18.4953C18.9988 18.4953 19.3943 18.5667 19.7405 18.7096C20.0921 18.8469 20.3887 19.0502 20.6305 19.3194C20.8722 19.5886 21.0563 19.921 21.1826 20.3166C21.309 20.7121 21.3722 21.1627 21.3722 21.6681V27H19.7569V21.6681C19.7569 21.0418 19.6196 20.5693 19.3449 20.2506C19.0757 19.932 18.6801 19.7727 18.1582 19.7727C17.9274 19.7727 17.7077 19.8139 17.4989 19.8963C17.2901 19.9732 17.1061 20.0913 16.9468 20.2506C16.7929 20.41 16.6693 20.6078 16.5759 20.844C16.488 21.0802 16.4441 21.3549 16.4441 21.6681V27H14.8288V21.6681C14.8288 21.0198 14.6997 20.5418 14.4415 20.2342C14.1833 19.9265 13.8042 19.7727 13.3043 19.7727C12.9581 19.7727 12.6367 19.8633 12.3401 20.0446C12.0434 20.2259 11.7714 20.4732 11.5242 20.7863V27H9.91723ZM28.0337 23.2833C27.3799 23.3053 26.825 23.3575 26.369 23.4399C25.913 23.5168 25.5422 23.6212 25.2565 23.7531C24.9708 23.8849 24.7648 24.0415 24.6384 24.2228C24.5121 24.3986 24.4489 24.5964 24.4489 24.8161C24.4489 25.0249 24.4818 25.2062 24.5478 25.36C24.6192 25.5084 24.7126 25.632 24.828 25.7309C24.9488 25.8243 25.0889 25.893 25.2483 25.9369C25.4076 25.9809 25.5806 26.0028 25.7674 26.0028C26.0147 26.0028 26.2399 25.9781 26.4432 25.9287C26.652 25.8792 26.847 25.8106 27.0283 25.7227C27.2096 25.6293 27.3827 25.5166 27.5475 25.3848C27.7123 25.2529 27.8744 25.1018 28.0337 24.9315V23.2833ZM23.3199 19.7974C23.7869 19.3524 24.2923 19.02 24.8362 18.8002C25.3856 18.5805 25.9872 18.4706 26.641 18.4706C27.119 18.4706 27.542 18.5503 27.9101 18.7096C28.2782 18.8634 28.5886 19.0804 28.8413 19.3606C29.094 19.6408 29.2836 19.976 29.4099 20.366C29.5418 20.7561 29.6077 21.1874 29.6077 21.6599V27H28.8908C28.7314 27 28.6106 26.9753 28.5282 26.9258C28.4457 26.8709 28.3798 26.772 28.3304 26.6292L28.1573 25.8957C27.943 26.0935 27.7315 26.2693 27.5228 26.4231C27.314 26.5715 27.0942 26.7006 26.8635 26.8105C26.6382 26.9148 26.3965 26.9945 26.1383 27.0494C25.8801 27.1044 25.5944 27.1319 25.2812 27.1319C24.9516 27.1319 24.6412 27.0879 24.35 27C24.0643 26.9066 23.8143 26.7665 23.6001 26.5797C23.3858 26.3929 23.2155 26.1594 23.0891 25.8792C22.9683 25.599 22.9078 25.2721 22.9078 24.8986C22.9078 24.5689 22.9957 24.253 23.1715 23.9508C23.3528 23.6432 23.644 23.3685 24.0451 23.1267C24.4516 22.885 24.979 22.6872 25.6273 22.5334C26.2811 22.3796 27.0832 22.2917 28.0337 22.2697V21.6599C28.0337 21.028 27.8991 20.5556 27.6299 20.2424C27.3607 19.9293 26.9651 19.7727 26.4432 19.7727C26.0916 19.7727 25.7949 19.8166 25.5532 19.9045C25.3169 19.9924 25.1109 20.0913 24.9351 20.2012C24.7648 20.3056 24.6137 20.4017 24.4818 20.4896C24.3555 20.5775 24.2236 20.6215 24.0863 20.6215C23.9764 20.6215 23.8803 20.5913 23.7978 20.5308C23.7209 20.4704 23.6577 20.399 23.6083 20.3166L23.3199 19.7974ZM33.2753 20.2342C33.5445 19.6848 33.8687 19.2535 34.2478 18.9403C34.6269 18.6272 35.0829 18.4706 35.6158 18.4706C35.7971 18.4706 35.9674 18.4926 36.1267 18.5365C36.2915 18.575 36.4344 18.6354 36.5552 18.7178L36.4481 19.9293C36.4097 20.0776 36.319 20.1518 36.1762 20.1518C36.0992 20.1518 35.9839 20.138 35.83 20.1106C35.6762 20.0776 35.5114 20.0611 35.3356 20.0611C35.0774 20.0611 34.8494 20.0996 34.6516 20.1765C34.4538 20.2479 34.2752 20.3578 34.1159 20.5061C33.9621 20.649 33.8247 20.8275 33.7039 21.0418C33.583 21.2506 33.4704 21.4895 33.366 21.7587V27H31.759V18.6272H32.682C32.8578 18.6272 32.9759 18.6601 33.0364 18.7261C33.1023 18.7865 33.149 18.8964 33.1764 19.0557L33.2753 20.2342ZM40.4155 27.1319C39.7397 27.1319 39.2178 26.9423 38.8497 26.5632C38.4871 26.1841 38.3058 25.643 38.3058 24.9398V19.9293H37.3334C37.24 19.9293 37.1603 19.9018 37.0944 19.8468C37.0339 19.7864 37.0037 19.6985 37.0037 19.5831V18.9321L38.3635 18.7426L38.7261 16.2455C38.7481 16.1521 38.7893 16.0807 38.8497 16.0313C38.9156 15.9763 38.998 15.9489 39.0969 15.9489H39.9128V18.759H42.2862V19.9293H39.9128V24.8326C39.9128 25.1623 39.9925 25.4095 40.1518 25.5743C40.3166 25.7336 40.5254 25.8133 40.7781 25.8133C40.9264 25.8133 41.0528 25.7941 41.1572 25.7556C41.2671 25.7172 41.3605 25.676 41.4374 25.632C41.5143 25.5826 41.5802 25.5386 41.6352 25.5001C41.6901 25.4617 41.7395 25.4425 41.7835 25.4425C41.8384 25.4425 41.8796 25.4562 41.9071 25.4837C41.9401 25.5056 41.973 25.5441 42.006 25.599L42.484 26.3737C42.2203 26.6154 41.9071 26.8022 41.5445 26.9341C41.1819 27.0659 40.8056 27.1319 40.4155 27.1319Z" fill="white"/>
<path d="M59.0836 10.1747H53.0952V27H49.4005V10.1747H43.412V7.13927H59.0836V10.1747ZM61.584 15.3528C62.0235 14.5104 62.5455 13.8511 63.1498 13.3749C63.7541 12.8896 64.4684 12.647 65.2925 12.647C65.9426 12.647 66.4645 12.7889 66.8582 13.0728L66.6385 15.6137C66.5927 15.7786 66.524 15.8976 66.4325 15.9708C66.35 16.0349 66.2356 16.067 66.0891 16.067C65.9517 16.067 65.7457 16.0441 65.471 15.9983C65.2055 15.9525 64.9445 15.9296 64.6881 15.9296C64.3127 15.9296 63.9785 15.9846 63.6855 16.0945C63.3925 16.2043 63.1269 16.3646 62.8888 16.5752C62.6599 16.7766 62.4539 17.0239 62.2708 17.3169C62.0968 17.6099 61.932 17.9441 61.7763 18.3195V27H58.3838V12.908H60.3753C60.7233 12.908 60.9659 12.972 61.1033 13.1002C61.2406 13.2193 61.3322 13.439 61.378 13.7595L61.584 15.3528ZM75.8879 20.9841C74.9081 21.0299 74.084 21.1169 73.4156 21.2451C72.7472 21.3641 72.2115 21.5198 71.8086 21.712C71.4057 21.9043 71.1173 22.1287 70.9433 22.3851C70.7693 22.6414 70.6823 22.9207 70.6823 23.2229C70.6823 23.8181 70.8563 24.2439 71.2043 24.5002C71.5614 24.7566 72.0238 24.8848 72.5915 24.8848C73.2874 24.8848 73.8872 24.7612 74.3908 24.514C74.9035 24.2576 75.4026 23.873 75.8879 23.3602V20.9841ZM68.1139 14.872C69.7346 13.3887 71.685 12.647 73.965 12.647C74.7891 12.647 75.5262 12.7843 76.1763 13.059C76.8264 13.3246 77.3758 13.7 77.8245 14.1853C78.2732 14.6614 78.612 15.2337 78.8409 15.9022C79.079 16.5706 79.198 17.3031 79.198 18.0998V27H77.6597C77.3392 27 77.092 26.9542 76.918 26.8627C76.744 26.7619 76.6067 26.5651 76.506 26.272L76.2038 25.2557C75.8467 25.5761 75.4987 25.86 75.1599 26.1072C74.8211 26.3453 74.4686 26.5467 74.1023 26.7116C73.7361 26.8764 73.3423 27 72.9211 27.0824C72.5091 27.174 72.0513 27.2198 71.5476 27.2198C70.9525 27.2198 70.4031 27.1419 69.8995 26.9863C69.3958 26.8214 68.9609 26.5788 68.5946 26.2583C68.2284 25.9378 67.9445 25.5395 67.7431 25.0634C67.5416 24.5872 67.4409 24.0333 67.4409 23.4014C67.4409 23.0443 67.5004 22.6918 67.6195 22.3439C67.7385 21.9867 67.9308 21.648 68.1963 21.3275C68.471 21.007 68.8235 20.7048 69.2539 20.421C69.6843 20.1371 70.2108 19.8899 70.8334 19.6793C71.4652 19.4687 72.1978 19.2993 73.031 19.1711C73.8643 19.0337 74.8166 18.9513 75.8879 18.9239V18.0998C75.8879 17.1566 75.6864 16.4607 75.2835 16.012C74.8807 15.5542 74.2992 15.3253 73.5392 15.3253C72.9898 15.3253 72.532 15.3894 72.1657 15.5176C71.8086 15.6458 71.4927 15.7923 71.218 15.9571C70.9433 16.1128 70.6915 16.2547 70.4626 16.3829C70.2428 16.5111 69.9956 16.5752 69.7209 16.5752C69.4828 16.5752 69.2814 16.5157 69.1166 16.3966C68.9517 16.2684 68.819 16.1219 68.7182 15.9571L68.1139 14.872ZM92.4883 15.8884C92.3876 16.0166 92.2868 16.1173 92.1861 16.1906C92.0945 16.2639 91.9572 16.3005 91.7741 16.3005C91.6001 16.3005 91.4307 16.2501 91.2659 16.1494C91.101 16.0395 90.9042 15.9205 90.6753 15.7923C90.4464 15.6549 90.1717 15.5359 89.8512 15.4352C89.5398 15.3253 89.1507 15.2704 88.6837 15.2704C88.0885 15.2704 87.5666 15.3802 87.1179 15.6C86.6692 15.8106 86.2938 16.1173 85.9917 16.5202C85.6986 16.9231 85.4789 17.413 85.3324 17.9899C85.1859 18.5576 85.1126 19.2031 85.1126 19.9265C85.1126 20.6773 85.1904 21.3458 85.3461 21.9318C85.5109 22.5178 85.7444 23.0123 86.0466 23.4152C86.3488 23.8089 86.715 24.1111 87.1454 24.3217C87.5757 24.5231 88.061 24.6239 88.6013 24.6239C89.1415 24.6239 89.5765 24.5598 89.9061 24.4316C90.2449 24.2942 90.5288 24.1477 90.7577 23.992C90.9866 23.8272 91.1835 23.6807 91.3483 23.5525C91.5223 23.4152 91.7145 23.3465 91.9251 23.3465C92.1998 23.3465 92.4059 23.4518 92.5432 23.6624L93.5184 24.8986C93.143 25.3381 92.7355 25.7089 92.296 26.0111C91.8565 26.3041 91.3986 26.5422 90.9225 26.7253C90.4555 26.8993 89.9702 27.0229 89.4666 27.0961C88.9721 27.1694 88.4777 27.206 87.9832 27.206C87.1133 27.206 86.2938 27.0458 85.5247 26.7253C84.7555 26.3957 84.0825 25.9195 83.5056 25.2969C82.9288 24.6742 82.4709 23.9142 82.1321 23.0169C81.8025 22.1104 81.6377 21.0802 81.6377 19.9265C81.6377 18.8918 81.7842 17.9349 82.0772 17.0559C82.3794 16.1677 82.8189 15.4031 83.3957 14.7622C83.9726 14.112 84.6868 13.6039 85.5384 13.2376C86.39 12.8713 87.3697 12.6882 88.4777 12.6882C89.5307 12.6882 90.4509 12.8576 91.2384 13.1964C92.035 13.5352 92.7492 14.0205 93.381 14.6523L92.4883 15.8884ZM99.0377 6.58988V18.2783H99.6695C99.8984 18.2783 100.077 18.2508 100.205 18.1959C100.343 18.1318 100.48 18.0082 100.617 17.8251L104.12 13.4986C104.266 13.3063 104.426 13.1598 104.6 13.059C104.783 12.9583 105.017 12.908 105.301 12.908H108.405L104.023 18.141C103.712 18.553 103.373 18.8689 103.007 19.0887C103.199 19.226 103.369 19.3863 103.515 19.5694C103.671 19.7525 103.817 19.9494 103.955 20.16L108.652 27H105.589C105.324 27 105.095 26.9588 104.903 26.8764C104.71 26.7848 104.55 26.6246 104.422 26.3957L100.823 21.0528C100.695 20.8422 100.562 20.7048 100.425 20.6407C100.288 20.5766 100.082 20.5446 99.8069 20.5446H99.0377V27H95.6452V6.58988H99.0377Z" fill="white"/>
<path d="M25.3857 14.8849L23.4156 10.4117L24.3829 9.98345L26.122 14.4793L25.3857 14.8849Z" fill="white"/>
<path d="M26.366 14.3506L25.7665 9.64991L26.6836 9.52145L27.2831 14.2222L26.366 14.3506Z" fill="white"/>
<path d="M27.5547 14.258L28.1519 9.54433L29.0635 9.67395L28.4663 14.3877L27.5547 14.258Z" fill="white"/>
<path d="M30.3406 9.99049L31.2091 10.3178L29.5579 14.7398L28.6895 14.4125L30.3406 9.99049Z" fill="white"/>
<path d="M24.2273 15.6534L21.5944 11.4236L22.4822 10.8476L25.1151 15.0774L24.2273 15.6534Z" fill="white"/>
<path d="M26.3791 15.1056L24.0116 16.6416L20.6265 11.2033L22.9939 9.66733L22.4297 8.76095L19.1745 10.873L23.688 18.124L26.9433 16.012L26.3791 15.1056Z" fill="white"/>
</svg>
