<svg width="150" height="50" viewBox="0 0 150 50" fill="none" xmlns="http://www.w3.org/2000/svg">
<path d="M10.5191 23.0669C10.4445 23.1938 10.3662 23.287 10.2841 23.3467C10.202 23.4064 10.0976 23.4363 9.97075 23.4363C9.83645 23.4363 9.68349 23.3766 9.51188 23.2572C9.34028 23.1304 9.1239 22.9923 8.86276 22.8431C8.60908 22.6864 8.30317 22.5484 7.94503 22.429C7.58689 22.3022 7.15787 22.2387 6.65796 22.2387C6.18791 22.2387 5.77381 22.3022 5.41567 22.429C5.06499 22.5484 4.77027 22.7163 4.53151 22.9326C4.29276 23.1416 4.10996 23.3915 3.98311 23.6825C3.86374 23.966 3.80405 24.2757 3.80405 24.6114C3.80405 25.0442 3.91223 25.4023 4.12861 25.6858C4.35245 25.9694 4.64343 26.2118 5.00157 26.4133C5.35971 26.6148 5.76635 26.7901 6.22148 26.9393C6.67662 27.0885 7.14294 27.2452 7.62046 27.4094C8.09798 27.5661 8.56431 27.7489 9.01944 27.9578C9.47458 28.1667 9.88121 28.4316 10.2394 28.7524C10.5975 29.0658 10.8847 29.4537 11.1011 29.9163C11.325 30.3715 11.4369 30.9311 11.4369 31.5951C11.4369 32.3039 11.3138 32.968 11.0675 33.5873C10.8288 34.2066 10.4781 34.7475 10.0155 35.2101C9.55292 35.6727 8.98214 36.0383 8.30317 36.3069C7.63165 36.568 6.86688 36.6986 6.00884 36.6986C5.49401 36.6986 4.99411 36.6464 4.50913 36.5419C4.02415 36.4449 3.56529 36.3069 3.13253 36.1278C2.69978 35.9413 2.29315 35.7212 1.91262 35.4675C1.53956 35.2064 1.20381 34.9154 0.905359 34.5945L1.58806 33.453C1.65521 33.3634 1.73355 33.2888 1.82309 33.2291C1.92009 33.1694 2.02827 33.1396 2.14765 33.1396C2.30434 33.1396 2.48341 33.2217 2.68486 33.3858C2.89378 33.55 3.14746 33.7328 3.44591 33.9342C3.75182 34.1282 4.11369 34.3073 4.53151 34.4714C4.9568 34.6356 5.47163 34.7176 6.07599 34.7176C6.56843 34.7176 7.00864 34.6542 7.39663 34.5274C7.78461 34.3931 8.10917 34.2066 8.37032 33.9678C8.63892 33.7216 8.8441 33.4269 8.98587 33.0836C9.12763 32.7404 9.19851 32.3599 9.19851 31.9421C9.19851 31.472 9.09032 31.0878 8.87395 30.7893C8.65757 30.4909 8.37032 30.2409 8.01218 30.0395C7.65404 29.838 7.2474 29.6664 6.79227 29.5246C6.33713 29.3829 5.87081 29.2374 5.39329 29.0881C4.91577 28.9315 4.44944 28.7524 3.99431 28.5509C3.53917 28.3495 3.13253 28.0883 2.7744 27.7675C2.41626 27.4392 2.129 27.0326 1.91262 26.5476C1.69625 26.0552 1.58806 25.4508 1.58806 24.7345C1.58806 24.16 1.69998 23.6041 1.92382 23.0669C2.14765 22.5297 2.47222 22.0559 2.89751 21.6456C3.33026 21.2277 3.86 20.8957 4.48675 20.6495C5.11349 20.3958 5.82977 20.269 6.63558 20.269C7.53839 20.269 8.36659 20.4145 9.12017 20.7055C9.88121 20.989 10.5415 21.3994 11.1011 21.9366L10.5191 23.0669ZM13.691 36.5195V25.1486H15.0004C15.3063 25.1486 15.4966 25.2941 15.5712 25.5851L15.7279 26.6707C16.1457 26.1708 16.6083 25.7642 17.1157 25.4508C17.6305 25.13 18.2311 24.9696 18.9176 24.9696C19.6712 24.9696 20.283 25.1785 20.753 25.5963C21.2231 26.0067 21.5663 26.5663 21.7827 27.2751C21.9468 26.8722 22.1595 26.5252 22.4206 26.2342C22.6818 25.9432 22.9728 25.7045 23.2936 25.518C23.6144 25.3314 23.9539 25.1934 24.312 25.1039C24.6776 25.0143 25.047 24.9696 25.42 24.9696C26.0244 24.9696 26.5616 25.0665 27.0317 25.2605C27.5092 25.4471 27.9121 25.7231 28.2404 26.0887C28.5687 26.4543 28.8186 26.9057 28.9902 27.4429C29.1618 27.9802 29.2476 28.592 29.2476 29.2784V36.5195H27.054V29.2784C27.054 28.4278 26.8675 27.7862 26.4945 27.3534C26.1289 26.9207 25.5916 26.7043 24.8828 26.7043C24.5695 26.7043 24.271 26.7602 23.9875 26.8722C23.704 26.9766 23.454 27.137 23.2376 27.3534C23.0287 27.5698 22.8608 27.8384 22.734 28.1592C22.6146 28.4801 22.5549 28.8531 22.5549 29.2784V36.5195H20.3613V29.2784C20.3613 28.398 20.186 27.7489 19.8353 27.331C19.4846 26.9132 18.9698 26.7043 18.2908 26.7043C17.8208 26.7043 17.3843 26.8274 16.9814 27.0736C16.5785 27.3198 16.2092 27.6556 15.8734 28.0809V36.5195H13.691ZM38.2945 31.472C37.4066 31.5019 36.653 31.5727 36.0337 31.6847C35.4145 31.7891 34.9108 31.9309 34.5228 32.1099C34.1349 32.289 33.8551 32.5017 33.6835 32.7479C33.5119 32.9866 33.426 33.2552 33.426 33.5537C33.426 33.8372 33.4708 34.0834 33.5603 34.2924C33.6573 34.4938 33.7842 34.6617 33.9409 34.796C34.105 34.9228 34.2953 35.0161 34.5117 35.0758C34.728 35.1355 34.9631 35.1653 35.2167 35.1653C35.5525 35.1653 35.8584 35.1317 36.1345 35.0646C36.418 34.9974 36.6829 34.9042 36.9291 34.7848C37.1753 34.658 37.4103 34.505 37.6342 34.3259C37.858 34.1469 38.0781 33.9417 38.2945 33.7104V31.472ZM31.8928 26.7379C32.527 26.1335 33.2134 25.6821 33.9521 25.3836C34.6982 25.0852 35.5152 24.936 36.4031 24.936C37.0522 24.936 37.6267 25.0442 38.1266 25.2605C38.6265 25.4695 39.0481 25.7642 39.3913 26.1447C39.7345 26.5252 39.9919 26.9804 40.1635 27.5101C40.3426 28.0398 40.4321 28.6256 40.4321 29.2672V36.5195H39.4584C39.2421 36.5195 39.0779 36.486 38.966 36.4188C38.8541 36.3442 38.7646 36.2099 38.6974 36.0159L38.4624 35.0198C38.1714 35.2884 37.8841 35.5272 37.6006 35.7361C37.3171 35.9376 37.0186 36.1129 36.7053 36.2621C36.3993 36.4039 36.0711 36.5121 35.7204 36.5867C35.3697 36.6613 34.9817 36.6986 34.5564 36.6986C34.1087 36.6986 33.6872 36.6389 33.2917 36.5195C32.9038 36.3927 32.5643 36.2024 32.2733 35.9487C31.9823 35.6951 31.751 35.378 31.5794 34.9974C31.4152 34.6169 31.3332 34.173 31.3332 33.6656C31.3332 33.2179 31.4526 32.7889 31.6913 32.3786C31.9375 31.9607 32.333 31.5877 32.8776 31.2594C33.4298 30.9311 34.1461 30.6625 35.0265 30.4536C35.9144 30.2446 37.0037 30.1253 38.2945 30.0954V29.2672C38.2945 28.4092 38.1117 27.7675 37.7461 27.3422C37.3805 26.9169 36.8433 26.7043 36.1345 26.7043C35.657 26.7043 35.254 26.764 34.9258 26.8834C34.6049 27.0027 34.3251 27.137 34.0864 27.2863C33.8551 27.428 33.6499 27.5586 33.4708 27.678C33.2992 27.7974 33.1201 27.857 32.9336 27.857C32.7844 27.857 32.6538 27.816 32.5419 27.7339C32.4374 27.6519 32.3516 27.5549 32.2845 27.4429L31.8928 26.7379ZM45.413 27.331C45.7786 26.5849 46.2188 25.9992 46.7337 25.5739C47.2485 25.1486 47.8678 24.936 48.5915 24.936C48.8377 24.936 49.069 24.9658 49.2854 25.0255C49.5092 25.0777 49.7032 25.1598 49.8674 25.2717L49.7219 26.9169C49.6697 27.1184 49.5466 27.2191 49.3526 27.2191C49.2481 27.2191 49.0914 27.2005 48.8825 27.1632C48.6736 27.1184 48.4498 27.096 48.211 27.096C47.8603 27.096 47.5507 27.1482 47.2821 27.2527C47.0135 27.3497 46.771 27.4989 46.5546 27.7004C46.3457 27.8944 46.1592 28.1368 45.995 28.4278C45.8309 28.7114 45.6779 29.0359 45.5361 29.4015V36.5195H43.3537V25.1486H44.6072C44.846 25.1486 45.0064 25.1934 45.0885 25.2829C45.178 25.365 45.2414 25.5142 45.2787 25.7306L45.413 27.331ZM55.1099 36.6986C54.1922 36.6986 53.4833 36.4412 52.9834 35.9264C52.491 35.4115 52.2448 34.6766 52.2448 33.7216V26.9169H50.9241C50.7973 26.9169 50.6891 26.8796 50.5996 26.805C50.5175 26.7229 50.4765 26.6036 50.4765 26.4469V25.5627L52.3231 25.3053L52.8156 21.9142C52.8454 21.7873 52.9014 21.6903 52.9834 21.6232C53.073 21.5486 53.1849 21.5113 53.3192 21.5113H54.4272V25.3277H57.6504V26.9169H54.4272V33.5761C54.4272 34.0238 54.5354 34.3595 54.7517 34.5833C54.9756 34.7997 55.2591 34.9079 55.6023 34.9079C55.8038 34.9079 55.9754 34.8818 56.1172 34.8296C56.2664 34.7773 56.3932 34.7214 56.4977 34.6617C56.6021 34.5945 56.6917 34.5348 56.7663 34.4826C56.8409 34.4304 56.908 34.4043 56.9677 34.4043C57.0423 34.4043 57.0983 34.4229 57.1356 34.4602C57.1804 34.4901 57.2251 34.5423 57.2699 34.6169L57.919 35.669C57.5609 35.9972 57.1356 36.2509 56.6432 36.43C56.1507 36.6091 55.6396 36.6986 55.1099 36.6986Z" fill="white"/>
<path d="M80.4629 13.7306H72.3301V36.5806H67.3124V13.7306H59.1797V9.60823H80.4629V13.7306ZM83.8586 20.7628C84.4555 19.6187 85.1643 18.7234 85.985 18.0767C86.8058 17.4176 87.7757 17.0881 88.8949 17.0881C89.7778 17.0881 90.4867 17.2809 91.0214 17.6664L90.7229 21.1172C90.6607 21.341 90.5675 21.5027 90.4431 21.6022C90.3312 21.6892 90.1758 21.7327 89.9768 21.7327C89.7903 21.7327 89.5105 21.7016 89.1374 21.6395C88.7768 21.5773 88.4224 21.5462 88.0742 21.5462C87.5643 21.5462 87.1104 21.6208 86.7125 21.77C86.3146 21.9193 85.954 22.1369 85.6306 22.4229C85.3198 22.6965 85.04 23.0322 84.7912 23.4302C84.555 23.8281 84.3311 24.282 84.1197 24.7918V36.5806H79.5124V17.4425H82.2171C82.6897 17.4425 83.0192 17.5296 83.2057 17.7037C83.3923 17.8653 83.5166 18.1638 83.5788 18.599L83.8586 20.7628ZM103.284 28.4105C101.954 28.4727 100.835 28.5908 99.9268 28.7649C99.019 28.9266 98.2915 29.138 97.7443 29.3991C97.1972 29.6603 96.8055 29.9649 96.5692 30.3131C96.3329 30.6613 96.2148 31.0406 96.2148 31.451C96.2148 32.2593 96.4511 32.8375 96.9236 33.1857C97.4086 33.5339 98.0366 33.708 98.8076 33.708C99.7527 33.708 100.567 33.5401 101.251 33.2044C101.948 32.8562 102.625 32.3339 103.284 31.6375V28.4105ZM92.7267 20.1099C94.9277 18.0954 97.5765 17.0881 100.673 17.0881C101.792 17.0881 102.793 17.2746 103.676 17.6477C104.559 18.0083 105.305 18.5182 105.914 19.1773C106.524 19.8239 106.984 20.6011 107.295 21.5089C107.618 22.4167 107.78 23.4115 107.78 24.4934V36.5806H105.691C105.255 36.5806 104.92 36.5184 104.683 36.394C104.447 36.2572 104.26 35.9899 104.124 35.592L103.713 34.2116C103.228 34.6469 102.756 35.0324 102.296 35.3681C101.836 35.6914 101.357 35.965 100.859 36.1889C100.362 36.4127 99.8273 36.5806 99.2552 36.6925C98.6957 36.8168 98.0739 36.879 97.3899 36.879C96.5816 36.879 95.8355 36.7733 95.1516 36.5619C94.4676 36.3381 93.8769 36.0085 93.3795 35.5733C92.8821 35.1381 92.4966 34.5971 92.223 33.9505C91.9495 33.3038 91.8127 32.5515 91.8127 31.6935C91.8127 31.2085 91.8935 30.7297 92.0552 30.2572C92.2168 29.7722 92.478 29.3121 92.8386 28.8768C93.2117 28.4416 93.6904 28.0312 94.2749 27.6457C94.8593 27.2602 95.5744 26.9245 96.42 26.6385C97.278 26.3525 98.2729 26.1224 99.4045 25.9483C100.536 25.7618 101.829 25.6499 103.284 25.6126V24.4934C103.284 23.2125 103.011 22.2674 102.464 21.6581C101.916 21.0363 101.127 20.7255 100.095 20.7255C99.3485 20.7255 98.7267 20.8125 98.2293 20.9866C97.7443 21.1607 97.3153 21.3597 96.9423 21.5835C96.5692 21.7949 96.2272 21.9876 95.9163 22.1617C95.6179 22.3358 95.2821 22.4229 94.9091 22.4229C94.5858 22.4229 94.3122 22.3421 94.0883 22.1804C93.8645 22.0063 93.6842 21.8073 93.5474 21.5835L92.7267 20.1099ZM125.829 21.4902C125.692 21.6643 125.555 21.8011 125.419 21.9006C125.294 22.0001 125.108 22.0498 124.859 22.0498C124.623 22.0498 124.393 21.9814 124.169 21.8446C123.945 21.6954 123.678 21.5338 123.367 21.3597C123.056 21.1731 122.683 21.0115 122.247 20.8747C121.825 20.7255 121.296 20.6508 120.662 20.6508C119.854 20.6508 119.145 20.8001 118.536 21.0985C117.926 21.3845 117.416 21.8011 117.006 22.3483C116.608 22.8954 116.31 23.5607 116.111 24.3442C115.912 25.1151 115.812 25.9918 115.812 26.9742C115.812 27.9939 115.918 28.9017 116.129 29.6976C116.353 30.4934 116.67 31.165 117.081 31.7121C117.491 32.2468 117.988 32.6572 118.573 32.9432C119.157 33.2168 119.816 33.3536 120.55 33.3536C121.284 33.3536 121.874 33.2665 122.322 33.0924C122.782 32.9059 123.168 32.7069 123.479 32.4955C123.789 32.2717 124.057 32.0727 124.281 31.8986C124.517 31.7121 124.778 31.6189 125.064 31.6189C125.437 31.6189 125.717 31.7619 125.903 32.0479L127.228 33.7266C126.718 34.3235 126.165 34.8272 125.568 35.2375C124.971 35.6355 124.349 35.9588 123.702 36.2075C123.068 36.4438 122.409 36.6117 121.725 36.7111C121.054 36.8106 120.382 36.8604 119.711 36.8604C118.529 36.8604 117.416 36.6427 116.372 36.2075C115.327 35.7598 114.413 35.1132 113.63 34.2676C112.846 33.422 112.225 32.3898 111.764 31.1712C111.317 29.9401 111.093 28.5411 111.093 26.9742C111.093 25.569 111.292 24.2695 111.69 23.0757C112.1 21.8695 112.697 20.8312 113.481 19.9607C114.264 19.0778 115.234 18.3876 116.39 17.8902C117.547 17.3928 118.877 17.1441 120.382 17.1441C121.812 17.1441 123.062 17.3741 124.131 17.8342C125.213 18.2943 126.183 18.9534 127.041 19.8115L125.829 21.4902ZM134.723 8.86211V24.7359H135.582C135.892 24.7359 136.135 24.6986 136.309 24.6239C136.496 24.5369 136.682 24.369 136.869 24.1203L141.625 18.2446C141.824 17.9835 142.042 17.7845 142.278 17.6477C142.527 17.5109 142.844 17.4425 143.229 17.4425H147.445L141.495 24.5493C141.072 25.1089 140.612 25.5379 140.114 25.8364C140.375 26.0229 140.605 26.2405 140.804 26.4893C141.016 26.738 141.215 27.0053 141.401 27.2913L147.781 36.5806H143.621C143.26 36.5806 142.949 36.5246 142.688 36.4127C142.427 36.2883 142.21 36.0707 142.035 35.7598L137.148 28.5038C136.974 28.2178 136.794 28.0312 136.607 27.9442C136.421 27.8571 136.141 27.8136 135.768 27.8136H134.723V36.5806H130.116V8.86211H134.723Z" fill="white"/>
<path d="M34.615 18.8245L31.946 13.0439L33.2565 12.4905L35.6125 18.3004L34.615 18.8245Z" fill="white"/>
<path d="M35.9431 18.1342L35.1308 12.0595L36.3733 11.8935L37.1855 17.9682L35.9431 18.1342Z" fill="white"/>
<path d="M37.5535 18.0145L38.3625 11.9231L39.5974 12.0906L38.7884 18.182L37.5535 18.0145Z" fill="white"/>
<path d="M41.3277 12.4996L42.5042 12.9225L40.2673 18.637L39.0908 18.2141L41.3277 12.4996Z" fill="white"/>
<path d="M33.0456 19.8177L29.4787 14.3517L30.6814 13.6073L34.2484 19.0734L33.0456 19.8177Z" fill="white"/>
<path d="M35.9607 19.1098L32.7534 21.0948L28.1674 14.067L31.3747 12.082L30.6103 10.9107L26.2003 13.64L32.315 23.0104L36.7251 20.2811L35.9607 19.1098Z" fill="white"/>
</svg>
