<svg width="87" height="30" viewBox="0 0 87 30" fill="none" xmlns="http://www.w3.org/2000/svg">
<path d="M6.81913 15.6679C6.77587 15.7408 6.73045 15.7944 6.68283 15.8288C6.63522 15.8631 6.57466 15.8803 6.50109 15.8803C6.4232 15.8803 6.33448 15.846 6.23495 15.7773C6.13542 15.7044 6.00992 15.625 5.85846 15.5392C5.71132 15.4491 5.53389 15.3697 5.32617 15.3011C5.11845 15.2282 4.86962 15.1917 4.57967 15.1917C4.30704 15.1917 4.06687 15.2282 3.85914 15.3011C3.65575 15.3697 3.48481 15.4663 3.34633 15.5907C3.20786 15.7108 3.10183 15.8545 3.02826 16.0218C2.95903 16.1849 2.9244 16.3629 2.9244 16.556C2.9244 16.8048 2.98715 17.0107 3.11265 17.1737C3.24248 17.3368 3.41125 17.4762 3.61897 17.5921C3.82669 17.7079 4.06254 17.8087 4.32651 17.8945C4.5905 17.9803 4.86096 18.0704 5.13792 18.1648C5.41488 18.2549 5.68536 18.36 5.94933 18.4801C6.21331 18.6003 6.44916 18.7526 6.65691 18.937C6.86461 19.1172 7.03118 19.3403 7.15669 19.6063C7.28656 19.868 7.35146 20.1898 7.35146 20.5716C7.35146 20.9792 7.28006 21.361 7.13721 21.7171C6.99876 22.0732 6.79535 22.3842 6.52705 22.6502C6.25875 22.9162 5.9277 23.1264 5.53389 23.2809C5.14441 23.431 4.70085 23.5061 4.20318 23.5061C3.90458 23.5061 3.61464 23.4761 3.33335 23.416C3.05206 23.3602 2.78592 23.2809 2.53492 23.1779C2.28393 23.0707 2.04808 22.9441 1.82738 22.7982C1.611 22.6481 1.41627 22.4808 1.24316 22.2962L1.63913 21.6399C1.67808 21.5884 1.72351 21.5455 1.77545 21.5111C1.83171 21.4768 1.89445 21.4597 1.96369 21.4597C2.05457 21.4597 2.15843 21.5069 2.27527 21.6012C2.39645 21.6957 2.54358 21.8008 2.71668 21.9166C2.89411 22.0281 3.104 22.1311 3.34633 22.2255C3.593 22.3199 3.8916 22.367 4.24213 22.367C4.52775 22.367 4.78307 22.3306 5.0081 22.2577C5.23313 22.1804 5.42137 22.0732 5.57284 21.9359C5.72863 21.7943 5.84763 21.6249 5.92986 21.4275C6.01208 21.2301 6.05319 21.0114 6.05319 20.7711C6.05319 20.5008 5.99044 20.2799 5.86495 20.1083C5.73945 19.9367 5.57284 19.7929 5.36512 19.6771C5.1574 19.5613 4.92155 19.4626 4.65757 19.3811C4.39359 19.2996 4.12313 19.2159 3.84616 19.1301C3.5692 19.04 3.29873 18.937 3.03476 18.8212C2.77077 18.7054 2.53492 18.5552 2.32721 18.3707C2.11949 18.1819 1.95288 17.9482 1.82738 17.6693C1.70188 17.3861 1.63913 17.0386 1.63913 16.6267C1.63913 16.2964 1.70404 15.9768 1.83387 15.6679C1.96369 15.359 2.15194 15.0865 2.39861 14.8506C2.64961 14.6103 2.95686 14.4194 3.32037 14.2779C3.68388 14.132 4.09932 14.0591 4.56669 14.0591C5.09032 14.0591 5.57068 14.1427 6.00775 14.3101C6.44916 14.4731 6.83213 14.7091 7.15669 15.018L6.81913 15.6679ZM8.65884 23.4031V16.8649H9.41829C9.59571 16.8649 9.70608 16.9485 9.74935 17.1158L9.84024 17.7401C10.0826 17.4526 10.3509 17.2188 10.6452 17.0386C10.9437 16.8542 11.2921 16.7619 11.6903 16.7619C12.1274 16.7619 12.4822 16.882 12.7548 17.1223C13.0275 17.3583 13.2265 17.68 13.352 18.0876C13.4472 17.8559 13.5706 17.6564 13.722 17.4891C13.8735 17.3217 14.0423 17.1845 14.2283 17.0773C14.4144 16.97 14.6113 16.8906 14.819 16.8392C15.0311 16.7876 15.2453 16.7619 15.4617 16.7619C15.8122 16.7619 16.1238 16.8176 16.3964 16.9292C16.6734 17.0365 16.9071 17.1952 17.0975 17.4054C17.2879 17.6156 17.4328 17.8752 17.5324 18.1841C17.6319 18.493 17.6817 18.8448 17.6817 19.2395V23.4031H16.4094V19.2395C16.4094 18.7504 16.3012 18.3815 16.0849 18.1326C15.8728 17.8838 15.5612 17.7594 15.1501 17.7594C14.9684 17.7594 14.7952 17.7915 14.6308 17.8559C14.4664 17.916 14.3214 18.0082 14.1959 18.1326C14.0747 18.257 13.9773 18.4115 13.9038 18.5959C13.8345 18.7805 13.7999 18.9949 13.7999 19.2395V23.4031H12.5276V19.2395C12.5276 18.7333 12.4259 18.36 12.2225 18.1197C12.0191 17.8795 11.7205 17.7594 11.3267 17.7594C11.0541 17.7594 10.801 17.8302 10.5673 17.9717C10.3336 18.1133 10.1194 18.3064 9.92463 18.5509V23.4031H8.65884ZM22.9289 20.5008C22.4139 20.518 21.9768 20.5587 21.6176 20.6231C21.2585 20.6831 20.9663 20.7647 20.7413 20.8676C20.5163 20.9706 20.354 21.0929 20.2545 21.2344C20.155 21.3717 20.1051 21.5261 20.1051 21.6978C20.1051 21.8608 20.1311 22.0024 20.183 22.1225C20.2393 22.2383 20.3129 22.3349 20.4038 22.4121C20.499 22.485 20.6093 22.5387 20.7348 22.573C20.8603 22.6073 20.9967 22.6245 21.1437 22.6245C21.3385 22.6245 21.5159 22.6051 21.6761 22.5666C21.8405 22.5279 21.9941 22.4743 22.1369 22.4057C22.2797 22.3328 22.416 22.2448 22.5459 22.1418C22.6757 22.0389 22.8034 21.9209 22.9289 21.7879V20.5008ZM19.2159 17.7787C19.5837 17.4312 19.9818 17.1716 20.4103 17C20.843 16.8284 21.3169 16.7426 21.8319 16.7426C22.2083 16.7426 22.5415 16.8048 22.8315 16.9292C23.1214 17.0494 23.366 17.2188 23.565 17.4376C23.7641 17.6564 23.9134 17.9181 24.0129 18.2227C24.1168 18.5273 24.1687 18.8641 24.1687 19.233V23.4031H23.6039C23.4785 23.4031 23.3832 23.3839 23.3183 23.3452C23.2534 23.3023 23.2015 23.2251 23.1625 23.1135L23.0262 22.5408C22.8575 22.6952 22.6908 22.8325 22.5264 22.9527C22.362 23.0685 22.1888 23.1693 22.0071 23.2551C21.8297 23.3366 21.6393 23.3989 21.4359 23.4418C21.2325 23.4847 21.0074 23.5061 20.7608 23.5061C20.5011 23.5061 20.2566 23.4718 20.0272 23.4031C19.8023 23.3302 19.6054 23.2208 19.4366 23.0749C19.2678 22.9291 19.1336 22.7468 19.0341 22.5279C18.9389 22.3091 18.8913 22.0539 18.8913 21.7621C18.8913 21.5047 18.9606 21.258 19.099 21.0221C19.2418 20.7818 19.4712 20.5673 19.7871 20.3786C20.1073 20.1898 20.5228 20.0353 21.0334 19.9152C21.5484 19.7951 22.1802 19.7265 22.9289 19.7093V19.233C22.9289 18.7397 22.8228 18.3707 22.6108 18.1262C22.3987 17.8816 22.0872 17.7594 21.6761 17.7594C21.3991 17.7594 21.1654 17.7937 20.975 17.8624C20.7889 17.931 20.6266 18.0082 20.4882 18.094C20.354 18.1755 20.235 18.2506 20.1311 18.3193C20.0316 18.3879 19.9277 18.4222 19.8195 18.4222C19.733 18.4222 19.6573 18.3986 19.5924 18.3514C19.5317 18.3042 19.482 18.2485 19.4431 18.1841L19.2159 17.7787ZM27.0576 18.1197C27.2696 17.6907 27.525 17.3539 27.8236 17.1094C28.1222 16.8649 28.4814 16.7426 28.9011 16.7426C29.0439 16.7426 29.1781 16.7597 29.3036 16.7941C29.4334 16.8241 29.5459 16.8713 29.6412 16.9356L29.5568 17.8816C29.5265 17.9975 29.4551 18.0554 29.3426 18.0554C29.282 18.0554 29.1911 18.0447 29.0699 18.0232C28.9487 17.9975 28.8189 17.9846 28.6804 17.9846C28.477 17.9846 28.2975 18.0146 28.1417 18.0747C27.9859 18.1305 27.8452 18.2163 27.7197 18.3321C27.5986 18.4437 27.4904 18.5831 27.3952 18.7504C27.3 18.9135 27.2112 19.1001 27.129 19.3103V23.4031H25.8632V16.8649H26.5902C26.7287 16.8649 26.8218 16.8906 26.8694 16.9421C26.9213 16.9893 26.9581 17.0751 26.9797 17.1995L27.0576 18.1197ZM32.6818 23.5061C32.1495 23.5061 31.7384 23.3581 31.4484 23.0621C31.1628 22.766 31.02 22.3435 31.02 21.7943V17.8816H30.254C30.1805 17.8816 30.1177 17.8602 30.0658 17.8173C30.0182 17.7701 29.9944 17.7015 29.9944 17.6114V17.103L31.0655 16.955L31.3511 15.0051C31.3684 14.9321 31.4009 14.8763 31.4484 14.8377C31.5004 14.7949 31.5653 14.7734 31.6432 14.7734H32.2858V16.9678H34.1553V17.8816H32.2858V21.7107C32.2858 21.9681 32.3486 22.1611 32.474 22.2898C32.6039 22.4142 32.7683 22.4765 32.9674 22.4765C33.0843 22.4765 33.1838 22.4614 33.266 22.4314C33.3526 22.4014 33.4261 22.3692 33.4867 22.3349C33.5473 22.2962 33.5992 22.2619 33.6425 22.2319C33.6858 22.2019 33.7247 22.1869 33.7593 22.1869C33.8026 22.1869 33.8351 22.1976 33.8567 22.219C33.8827 22.2362 33.9086 22.2662 33.9346 22.3091L34.3111 22.9141C34.1034 23.1028 33.8567 23.2487 33.5711 23.3517C33.2855 23.4546 32.989 23.5061 32.6818 23.5061Z" fill="#9E333D"/>
<path d="M47.3862 10.2994H42.6692V23.4381H39.759V10.2994H35.042V7.92902H47.3862V10.2994ZM49.3558 14.3429C49.702 13.685 50.1131 13.1702 50.5891 12.7984C51.0651 12.4194 51.6277 12.2299 52.2768 12.2299C52.7889 12.2299 53.2001 12.3408 53.5102 12.5625L53.337 14.5467C53.301 14.6754 53.2469 14.7683 53.1748 14.8256C53.1099 14.8756 53.0197 14.9006 52.9043 14.9006C52.7961 14.9006 52.6339 14.8827 52.4175 14.847C52.2083 14.8112 52.0028 14.7934 51.8008 14.7934C51.5051 14.7934 51.2418 14.8362 51.011 14.922C50.7802 15.0079 50.5711 15.133 50.3835 15.2975C50.2033 15.4548 50.041 15.6478 49.8967 15.8767C49.7597 16.1054 49.6298 16.3664 49.5072 16.6596V23.4381H46.835V12.4337H48.4037C48.6778 12.4337 48.8689 12.4838 48.9771 12.5839C49.0853 12.6768 49.1574 12.8485 49.1935 13.0987L49.3558 14.3429ZM60.6225 18.7403C59.8511 18.7761 59.2021 18.844 58.6753 18.9441C58.1488 19.0371 57.7268 19.1586 57.4095 19.3088C57.0921 19.459 56.865 19.6341 56.7279 19.8343C56.5908 20.0345 56.5223 20.2526 56.5223 20.4886C56.5223 20.9534 56.6594 21.2858 56.9335 21.4861C57.2148 21.6863 57.579 21.7864 58.0262 21.7864C58.5743 21.7864 59.0466 21.6898 59.4433 21.4968C59.8476 21.2966 60.2403 20.9963 60.6225 20.5958V18.7403ZM54.4993 13.9675C55.7758 12.8091 57.3121 12.2299 59.1081 12.2299C59.7571 12.2299 60.3377 12.3372 60.8498 12.5517C61.362 12.7591 61.7947 13.0523 62.1479 13.4312C62.5017 13.803 62.7685 14.2499 62.9489 14.7719C63.1362 15.2939 63.2302 15.8659 63.2302 16.488V23.4381H62.0185C61.7657 23.4381 61.5714 23.4024 61.4339 23.3308C61.297 23.2522 61.1886 23.0985 61.1097 22.8697L60.8713 22.076C60.59 22.3263 60.3162 22.5479 60.0494 22.7409C59.7826 22.9268 59.5048 23.0842 59.216 23.2129C58.9277 23.3416 58.6176 23.4381 58.2858 23.5025C57.9613 23.5739 57.6006 23.6097 57.2039 23.6097C56.7351 23.6097 56.3024 23.5489 55.9057 23.4274C55.509 23.2987 55.1664 23.1092 54.8779 22.8589C54.5894 22.6087 54.3658 22.2976 54.2071 21.9258C54.0485 21.554 53.9691 21.1214 53.9691 20.628C53.9691 20.3492 54.016 20.0739 54.1098 19.8022C54.2035 19.5233 54.355 19.2587 54.5642 19.0084C54.7806 18.7582 55.0582 18.5222 55.3972 18.3006C55.7362 18.0789 56.1509 17.8859 56.6414 17.7214C57.139 17.557 57.716 17.4247 58.3724 17.3246C59.0286 17.2173 59.7786 17.153 60.6225 17.1315V16.488C60.6225 15.7515 60.4641 15.208 60.1469 14.8577C59.829 14.5002 59.3714 14.3214 58.7729 14.3214C58.3399 14.3214 57.9793 14.3715 57.6908 14.4716C57.4095 14.5717 57.1606 14.6861 56.9443 14.8148C56.7279 14.9364 56.5295 15.0472 56.3492 15.1473C56.1761 15.2474 55.9814 15.2975 55.765 15.2975C55.5775 15.2975 55.4188 15.251 55.289 15.158C55.1592 15.0579 55.0546 14.9435 54.9753 14.8148L54.4993 13.9675ZM73.6986 14.7612C73.6191 14.8613 73.5397 14.9399 73.4608 14.9971C73.3883 15.0543 73.2804 15.0829 73.136 15.0829C72.9991 15.0829 72.8657 15.0436 72.7358 14.9649C72.6059 14.8791 72.451 14.7862 72.2706 14.6861C72.0902 14.5788 71.8739 14.4859 71.621 14.4072C71.3763 14.3214 71.0694 14.2785 70.7017 14.2785C70.2331 14.2785 69.8219 14.3643 69.4686 14.5359C69.1148 14.7004 68.819 14.9399 68.5812 15.2546C68.3504 15.5691 68.1776 15.9517 68.0621 16.4022C67.9467 16.8455 67.8887 17.3496 67.8887 17.9145C67.8887 18.5008 67.9502 19.0228 68.0726 19.4804C68.2025 19.938 68.3864 20.3242 68.6247 20.6387C68.8625 20.9462 69.1508 21.1822 69.4901 21.3466C69.8288 21.5039 70.211 21.5826 70.6368 21.5826C71.0625 21.5826 71.4047 21.5325 71.6645 21.4324C71.9313 21.3252 72.1552 21.2108 72.3356 21.0892C72.5154 20.9605 72.6708 20.8461 72.8007 20.746C72.9376 20.6387 73.089 20.5852 73.2549 20.5852C73.4712 20.5852 73.6336 20.6674 73.7415 20.8318L74.51 21.7971C74.2142 22.1403 73.8935 22.4299 73.5472 22.6658C73.2009 22.8947 72.8402 23.0806 72.4649 23.2236C72.0972 23.3595 71.715 23.456 71.3183 23.5132C70.9291 23.5704 70.5393 23.599 70.1501 23.599C69.4646 23.599 68.819 23.4738 68.2135 23.2236C67.6074 22.9662 67.0773 22.5944 66.6232 22.1082C66.1684 21.6219 65.8083 21.0284 65.5409 20.3277C65.2816 19.6198 65.1517 18.8154 65.1517 17.9145C65.1517 17.1065 65.2671 16.3592 65.498 15.6728C65.7358 14.9792 66.082 14.3822 66.5367 13.8817C66.9909 13.374 67.5535 12.9772 68.224 12.6912C68.895 12.4051 69.6664 12.2621 70.5393 12.2621C71.3687 12.2621 72.0937 12.3944 72.7137 12.659C73.3413 12.9235 73.9039 13.3025 74.4015 13.7959L73.6986 14.7612ZM78.8571 7.5V16.6274H79.3553C79.5351 16.6274 79.6761 16.606 79.777 16.563C79.8854 16.513 79.9933 16.4165 80.1018 16.2735L82.8603 12.8949C82.9757 12.7448 83.1021 12.6304 83.239 12.5517C83.3834 12.4731 83.5673 12.4337 83.7906 12.4337H86.2359L82.7849 16.5201C82.5395 16.8419 82.2727 17.0886 81.9839 17.2602C82.1353 17.3675 82.2687 17.4926 82.3841 17.6356C82.507 17.7786 82.6225 17.9323 82.7303 18.0968L86.4307 23.4381H84.0179C83.8086 23.4381 83.6282 23.4059 83.4768 23.3416C83.3254 23.2701 83.1996 23.1449 83.0981 22.9662L80.2636 18.794C80.1627 18.6295 80.0583 18.5222 79.9498 18.4722C79.8419 18.4221 79.6795 18.3971 79.4632 18.3971H78.8571V23.4381H76.185V7.5H78.8571Z" fill="#9E333D"/>
<path d="M20.7941 13.228L19.2461 9.90414L20.0062 9.58594L21.3727 12.9266L20.7941 13.228Z" fill="#9E333D"/>
<path d="M21.5649 12.8316L21.0938 9.33861L21.8144 9.24316L22.2855 12.7361L21.5649 12.8316Z" fill="#9E333D"/>
<path d="M22.499 12.7628L22.9682 9.26025L23.6845 9.35657L23.2153 12.8591L22.499 12.7628Z" fill="#9E333D"/>
<path d="M24.689 9.5918L25.3714 9.83496L24.074 13.1208L23.3916 12.8776L24.689 9.5918Z" fill="#9E333D"/>
<path d="M19.8842 13.7995L17.8154 10.6565L18.513 10.2285L20.5819 13.3715L19.8842 13.7995Z" fill="#9E333D"/>
<path d="M20.8573 10.9884L18.9971 12.1298L16.3372 8.0888L18.1974 6.94742L17.7541 6.27393L15.1963 7.84327L18.7428 13.2313L21.3007 11.6619L20.8573 10.9884Z" fill="#9E333D"/>
</svg>
