<svg width="26" height="26" viewBox="0 0 26 26" fill="none" xmlns="http://www.w3.org/2000/svg">
<g clip-path="url(#clip0_3059_10838)">
<path d="M13.2325 4.39126C13.0833 4.33145 12.9167 4.33145 12.7675 4.39126L5.3075 7.37501L13 10.4513L20.6925 7.37501L13.2325 4.39126ZM21.75 8.29876L13.625 11.5488V21.4513L21.75 18.2013V8.30001V8.29876ZM12.375 21.4525V11.5475L4.25 8.29876V18.2025L12.375 21.4525ZM12.3038 3.23001C12.7507 3.05126 13.2493 3.05126 13.6962 3.23001L22.6075 6.79501C22.7234 6.84144 22.8227 6.9215 22.8926 7.02487C22.9626 7.12824 23 7.25019 23 7.37501V18.2025C22.9998 18.4523 22.9249 18.6963 22.7847 18.9031C22.6446 19.1098 22.4457 19.2698 22.2138 19.3625L13.2325 22.955C13.0833 23.0148 12.9167 23.0148 12.7675 22.955L3.7875 19.3625C3.55531 19.27 3.35618 19.1101 3.2158 18.9033C3.07543 18.6965 3.00026 18.4524 3 18.2025V7.37501C3.00003 7.25019 3.03743 7.12824 3.10738 7.02487C3.17734 6.9215 3.27664 6.84144 3.3925 6.79501L12.3038 3.23001Z" fill="white"/>
</g>
<defs>
<clipPath id="clip0_3059_10838">
<rect width="20" height="20" fill="white" transform="translate(3 3)"/>
</clipPath>
</defs>
</svg>
