<svg width="26" height="26" viewBox="0 0 26 26" fill="none" xmlns="http://www.w3.org/2000/svg">
<path d="M20.5625 13.1289H12.8711V5.43754C12.8711 5.34301 12.7938 5.26567 12.6992 5.26567H12.1406C11.0121 5.26382 9.89426 5.48514 8.85154 5.91691C7.80882 6.34867 6.86176 6.98235 6.06486 7.78149C5.28005 8.56387 4.65473 9.49127 4.22365 10.5122C3.77506 11.571 3.54488 12.7095 3.54689 13.8594C3.54504 14.988 3.76636 16.1058 4.19813 17.1485C4.62989 18.1912 5.26357 19.1383 6.06271 19.9352C6.85119 20.7237 7.77072 21.3446 8.79337 21.7764C9.8522 22.225 10.9907 22.4552 12.1406 22.4532C13.2692 22.455 14.387 22.2337 15.4297 21.8019C16.4725 21.3702 17.4195 20.7365 18.2164 19.9373C19.0049 19.1489 19.6258 18.2293 20.0576 17.2067C20.5062 16.1479 20.7364 15.0094 20.7344 13.8594V13.3008C20.7344 13.2063 20.657 13.1289 20.5625 13.1289ZM17.1615 18.9254C16.4963 19.5855 15.7073 20.1078 14.8398 20.4625C13.9723 20.8172 13.0434 20.9972 12.1063 20.9922C10.2135 20.9836 8.43458 20.2424 7.09611 18.9039C5.74904 17.5569 5.00783 15.7651 5.00783 13.8594C5.00783 11.9538 5.74904 10.162 7.09611 8.81489C8.26915 7.64184 9.77951 6.92641 11.4102 6.76313V14.5899H19.2369C19.0715 16.2291 18.3496 17.7481 17.1615 18.9254ZM22.4531 11.9344L22.3973 11.3286C22.2147 9.34985 21.336 7.48286 19.9223 6.07348C18.5076 4.66152 16.6445 3.78768 14.6543 3.60278L14.0463 3.54692C13.9453 3.53832 13.8594 3.61567 13.8594 3.71664V11.9688C13.8594 12.0633 13.9367 12.1407 14.0313 12.1407L22.2813 12.1192C22.3822 12.1192 22.4617 12.0332 22.4531 11.9344ZM15.316 10.684V5.17114C16.6694 5.4544 17.9114 6.12465 18.891 7.10043C19.8729 8.08012 20.5453 9.32621 20.8246 10.669L15.316 10.684Z" fill="white"/>
</svg>
