<svg width="25" height="25" viewBox="0 0 25 25" fill="none" xmlns="http://www.w3.org/2000/svg">
<circle cx="12.5" cy="12.5" r="12.5" fill="#E6AD42"/>
<path d="M13.12 6.848L12.944 14.848H11.728L11.552 6.848H13.12ZM12.4 18.096C12.1227 18.096 11.888 18 11.696 17.808C11.504 17.616 11.408 17.3813 11.408 17.104C11.408 16.8267 11.504 16.592 11.696 16.4C11.888 16.208 12.1227 16.112 12.4 16.112C12.6667 16.112 12.8907 16.208 13.072 16.4C13.264 16.592 13.36 16.8267 13.36 17.104C13.36 17.3813 13.264 17.616 13.072 17.808C12.8907 18 12.6667 18.096 12.4 18.096Z" fill="white"/>
</svg>
