<svg width="26" height="26" viewBox="0 0 26 26" fill="none" xmlns="http://www.w3.org/2000/svg">
<path d="M21.0625 10.5312C20.6233 9.49162 19.9865 8.54708 19.1875 7.75C18.3904 6.95099 17.4459 6.31423 16.4062 5.875C15.3262 5.41797 14.1816 5.1875 13 5.1875C11.8184 5.1875 10.6738 5.41797 9.59375 5.875C8.55412 6.31423 7.60958 6.95099 6.8125 7.75C6.01349 8.54708 5.37673 9.49162 4.9375 10.5312C4.48047 11.6113 4.25 12.7559 4.25 13.9375C4.25 16.5293 5.38867 18.9707 7.37305 20.6387L7.40625 20.666C7.51953 20.7598 7.66211 20.8125 7.80859 20.8125H18.1934C18.3398 20.8125 18.4824 20.7598 18.5957 20.666L18.6289 20.6387C20.6113 18.9707 21.75 16.5293 21.75 13.9375C21.75 12.7559 21.5176 11.6113 21.0625 10.5312ZM17.8711 19.3281H8.12891C7.37421 18.6476 6.77103 17.8161 6.35851 16.8874C5.94599 15.9587 5.73334 14.9537 5.73438 13.9375C5.73438 11.9961 6.49023 10.1719 7.86328 8.80078C9.23633 7.42773 11.0605 6.67188 13 6.67188C14.9414 6.67188 16.7656 7.42773 18.1367 8.80078C19.5098 10.1738 20.2656 11.998 20.2656 13.9375C20.2656 16 19.3965 17.9512 17.8711 19.3281ZM15.1777 11.2324C15.1484 11.2033 15.1087 11.187 15.0674 11.187C15.0261 11.187 14.9864 11.2033 14.957 11.2324L13.3066 12.8828C12.9414 12.7852 12.5371 12.8789 12.25 13.166C12.1483 13.2675 12.0676 13.3881 12.0126 13.5208C11.9575 13.6535 11.9292 13.7958 11.9292 13.9395C11.9292 14.0831 11.9575 14.2254 12.0126 14.3581C12.0676 14.4908 12.1483 14.6114 12.25 14.7129C12.3515 14.8146 12.4721 14.8953 12.6048 14.9503C12.7375 15.0054 12.8798 15.0337 13.0234 15.0337C13.1671 15.0337 13.3094 15.0054 13.4421 14.9503C13.5748 14.8953 13.6954 14.8146 13.7969 14.7129C13.9329 14.5773 14.0307 14.4082 14.0804 14.2226C14.1302 14.0371 14.13 13.8417 14.0801 13.6562L15.7305 12.0059C15.791 11.9453 15.791 11.8457 15.7305 11.7852L15.1777 11.2324ZM12.5703 9.25H13.4297C13.5156 9.25 13.5859 9.17969 13.5859 9.09375V7.53125C13.5859 7.44531 13.5156 7.375 13.4297 7.375H12.5703C12.4844 7.375 12.4141 7.44531 12.4141 7.53125V9.09375C12.4141 9.17969 12.4844 9.25 12.5703 9.25ZM17.6484 13.5078V14.3672C17.6484 14.4531 17.7188 14.5234 17.8047 14.5234H19.3672C19.4531 14.5234 19.5234 14.4531 19.5234 14.3672V13.5078C19.5234 13.4219 19.4531 13.3516 19.3672 13.3516H17.8047C17.7188 13.3516 17.6484 13.4219 17.6484 13.5078ZM17.8965 9.65625L17.2891 9.04883C17.2597 9.01975 17.22 9.00344 17.1787 9.00344C17.1374 9.00344 17.0977 9.01975 17.0684 9.04883L15.9629 10.1543C15.9338 10.1837 15.9175 10.2233 15.9175 10.2646C15.9175 10.306 15.9338 10.3456 15.9629 10.375L16.5703 10.9824C16.6309 11.043 16.7305 11.043 16.791 10.9824L17.8965 9.87695C17.957 9.81641 17.957 9.7168 17.8965 9.65625ZM8.93945 9.04883C8.91009 9.01975 8.87043 9.00344 8.8291 9.00344C8.78777 9.00344 8.74812 9.01975 8.71875 9.04883L8.11133 9.65625C8.08225 9.68562 8.06594 9.72527 8.06594 9.7666C8.06594 9.80793 8.08225 9.84759 8.11133 9.87695L9.2168 10.9824C9.27734 11.043 9.37695 11.043 9.4375 10.9824L10.0449 10.375C10.1055 10.3145 10.1055 10.2148 10.0449 10.1543L8.93945 9.04883ZM8.11719 13.3516H6.55469C6.46875 13.3516 6.39844 13.4219 6.39844 13.5078V14.3672C6.39844 14.4531 6.46875 14.5234 6.55469 14.5234H8.11719C8.20312 14.5234 8.27344 14.4531 8.27344 14.3672V13.5078C8.27344 13.4219 8.20312 13.3516 8.11719 13.3516Z" fill="white"/>
</svg>
