<svg width="25" height="25" viewBox="0 0 25 25" fill="none" xmlns="http://www.w3.org/2000/svg">
<circle cx="12.5" cy="12.5" r="12.5" fill="#5192B8"/>
<path d="M12.984 8.808C12.7067 8.808 12.472 8.712 12.28 8.52C12.088 8.328 11.992 8.09333 11.992 7.816C11.992 7.53867 12.088 7.304 12.28 7.112C12.472 6.92 12.7067 6.824 12.984 6.824C13.2507 6.824 13.4747 6.92 13.656 7.112C13.848 7.304 13.944 7.53867 13.944 7.816C13.944 8.09333 13.848 8.328 13.656 8.52C13.4747 8.712 13.2507 8.808 12.984 8.808ZM13.688 10.232V19H12.232V10.232H13.688Z" fill="white"/>
</svg>
