<svg width="30" height="30" viewBox="0 0 30 30" fill="none" xmlns="http://www.w3.org/2000/svg">
<path d="M24.3499 4C25.4771 4 26.5581 4.44777 27.3551 5.2448C28.1521 6.04183 28.5999 7.12283 28.5999 8.25V21.85C28.5999 22.9772 28.1521 24.0582 27.3551 24.8552C26.5581 25.6522 25.4771 26.1 24.3499 26.1H5.6499C4.52273 26.1 3.44173 25.6522 2.6447 24.8552C1.84767 24.0582 1.3999 22.9772 1.3999 21.85V8.25C1.3999 7.12283 1.84767 6.04183 2.6447 5.2448C3.44173 4.44777 4.52273 4 5.6499 4H24.3499ZM26.8999 10.7337L15.4317 17.4827C15.3233 17.5464 15.2021 17.5852 15.0769 17.5963C14.9516 17.6075 14.8255 17.5908 14.7075 17.5473L14.5681 17.4827L3.0999 10.7371V21.85C3.0999 22.5263 3.36856 23.1749 3.84678 23.6531C4.325 24.1313 4.9736 24.4 5.6499 24.4H24.3499C25.0262 24.4 25.6748 24.1313 26.153 23.6531C26.6312 23.1749 26.8999 22.5263 26.8999 21.85V10.7337ZM24.3499 5.7H5.6499C4.9736 5.7 4.325 5.96866 3.84678 6.44688C3.36856 6.9251 3.0999 7.5737 3.0999 8.25V8.7634L14.9999 15.764L26.8999 8.76V8.25C26.8999 7.5737 26.6312 6.9251 26.153 6.44688C25.6748 5.96866 25.0262 5.7 24.3499 5.7V5.7Z" fill="#909090"/>
</svg>
