<svg width="25" height="25" viewBox="0 0 25 25" fill="none" xmlns="http://www.w3.org/2000/svg">
<mask id="mask0_4710_1069" style="mask-type:alpha" maskUnits="userSpaceOnUse" x="0" y="0" width="25" height="25">
<rect x="0.639282" y="0.970337" width="24" height="24" fill="#D9D9D9"/>
</mask>
<g mask="url(#mask0_4710_1069)">
<path d="M4.63929 18.9703V8.07029L3.08929 4.72029C2.97262 4.47029 2.96429 4.21612 3.06429 3.95779C3.16429 3.69946 3.33929 3.51196 3.58929 3.39529C3.83929 3.27862 4.09345 3.26612 4.35179 3.35779C4.61012 3.44946 4.79762 3.62029 4.91429 3.87029L6.83929 8.02029H18.4393L20.3643 3.87029C20.481 3.62029 20.6685 3.44529 20.9268 3.34529C21.1851 3.24529 21.4393 3.26196 21.6893 3.39529C21.9393 3.51196 22.1143 3.69946 22.2143 3.95779C22.3143 4.21612 22.306 4.47029 22.1893 4.72029L20.6393 8.07029V18.9703C20.6393 19.5203 20.4435 19.9911 20.0518 20.3828C19.6601 20.7745 19.1893 20.9703 18.6393 20.9703H6.63929C6.08929 20.9703 5.61845 20.7745 5.22679 20.3828C4.83512 19.9911 4.63929 19.5203 4.63929 18.9703ZM10.6393 13.9703H14.6393C14.9226 13.9703 15.1601 13.8745 15.3518 13.6828C15.5435 13.4911 15.6393 13.2536 15.6393 12.9703C15.6393 12.687 15.5435 12.4495 15.3518 12.2578C15.1601 12.0661 14.9226 11.9703 14.6393 11.9703H10.6393C10.356 11.9703 10.1185 12.0661 9.92679 12.2578C9.73512 12.4495 9.63929 12.687 9.63929 12.9703C9.63929 13.2536 9.73512 13.4911 9.92679 13.6828C10.1185 13.8745 10.356 13.9703 10.6393 13.9703Z" fill="#A33FA5"/>
</g>
</svg>
